<svg xmlns="http://www.w3.org/2000/svg" xmlns:v="https://svgstorm.com"
viewBox = "0 0 500 500"
width="500"
height="500">
<g fill="None" fill-opacity="0.0" stroke="#000000" stroke-opacity="0.00" stroke-width="0.3"><path d="
M 0.00 228.00 
C 0.50 228.00 1.00 228.00 1.00 228.00
C 1.00 171.42 32.99 112.49 72.75 72.75 C 112.51 33.01 171.35 1.00 228.00 1.00
C 227.96 1.00 228.00 0.00 228.00 0.00
L 0.00 0.00
L 0.00 228.00 Z"/>
</g>
<g fill="None" fill-opacity="0.0" stroke="#FFFFFF" stroke-opacity="0.33" stroke-width="0.3"><path d="
M 228.00 1.00 
C 231.00 1.00 234.00 1.00 237.00 1.00
C 236.96 1.00 237.00 0.00 237.00 0.00
L 228.00 0.00
C 228.00 0.00 227.96 1.00 228.00 1.00 Z"/>
</g>
<g fill="None" fill-opacity="0.0" stroke="#FFFFFF" stroke-opacity="0.78" stroke-width="0.3"><path d="
M 237.00 1.00 
C 239.52 1.00 243.30 1.78 245.00 0.00
L 237.00 0.00
C 237.00 0.00 236.96 1.00 237.00 1.00 Z"/>
</g>
<g fill="None" fill-opacity="0.0" stroke="#FEFEFE" stroke-opacity="0.99" stroke-width="0.3"><path d="
M 237.00 1.00 
C 234.00 1.00 231.00 1.00 228.00 1.00
C 171.35 1.00 112.51 33.01 72.75 72.75 C 32.99 112.49 1.00 171.42 1.00 228.00
C 1.00 231.00 1.00 234.00 1.00 237.00
C 1.00 239.52 1.78 243.30 0.00 245.00
L 0.00 255.00
C 1.80 259.75 1.00 266.49 1.00 272.00
C 1.00 328.58 32.99 387.50 72.75 427.25 C 112.51 466.99 171.35 499.00 228.00 499.00
C 231.00 499.00 234.00 499.00 237.00 499.00
C 239.52 499.00 243.30 498.22 245.00 500.00
L 255.00 500.00
C 259.75 498.20 266.49 499.00 272.00 499.00
C 328.58 499.00 387.50 467.01 427.25 427.25 C 466.99 387.49 499.00 328.65 499.00 272.00
C 499.00 266.50 498.17 259.67 500.00 255.00
L 500.00 245.00
C 498.31 243.23 499.00 239.52 499.00 237.00
C 499.00 234.00 499.00 231.00 499.00 228.00
C 499.00 171.42 467.01 112.50 427.25 72.75 C 387.49 33.01 328.65 1.00 272.00 1.00
C 266.50 1.00 259.67 1.83 255.00 0.00
L 245.00 0.00
C 243.30 1.78 239.52 1.00 237.00 1.00
M 119.00 197.00 
C 122.07 193.40 125.45 190.03 129.00 187.00
C 146.04 172.44 164.88 159.71 186.00 153.00
C 185.78 139.38 186.29 121.16 186.00 108.00 C 185.71 94.84 186.84 80.07 177.25 70.75 C 167.65 61.44 164.50 47.96 181.00 48.00 C 197.50 48.04 211.04 48.07 227.00 48.00 C 242.96 47.93 256.08 48.23 272.00 48.00 C 287.92 47.77 301.64 48.53 318.00 48.00 C 334.36 47.47 333.18 60.62 323.08 70.08 C 312.99 79.55 314.28 93.45 314.00 107.00 C 313.72 120.55 314.21 139.00 314.00 153.00
C 332.95 159.36 349.89 169.29 365.25 182.75 C 380.61 196.21 392.40 208.27 402.75 226.25 C 413.11 244.22 420.24 265.39 423.00 287.00 C 425.75 308.62 423.11 338.50 415.22 358.22 C 407.33 377.95 400.57 394.15 385.75 409.75 C 370.93 425.35 361.94 436.94 341.92 446.92 C 321.91 456.91 288.90 450.31 265.00 452.00 C 241.10 453.69 207.75 450.18 184.00 452.00 C 160.25 453.82 145.54 440.10 129.25 425.75 C 112.96 411.40 104.16 398.55 94.08 379.92 C 83.99 361.30 77.43 339.15 76.00 317.00 C 74.57 294.85 78.82 266.63 86.98 246.98 C 95.13 227.32 105.08 212.91 119.00 197.00 Z"/>
</g>
<g fill="None" fill-opacity="0.0" stroke="#FFFFFF" stroke-opacity="0.55" stroke-width="0.3"><path d="
M 272.00 1.00 
C 271.96 1.00 272.00 0.00 272.00 0.00
L 255.00 0.00
C 259.67 1.83 266.50 1.00 272.00 1.00 Z"/>
</g>
<g fill="None" fill-opacity="0.0" stroke="#000000" stroke-opacity="0.00" stroke-width="0.3"><path d="
M 272.00 1.00 
C 328.65 1.00 387.49 33.01 427.25 72.75 C 467.01 112.50 499.00 171.42 499.00 228.00
C 499.00 227.96 500.00 228.00 500.00 228.00
L 500.00 0.00
L 272.00 0.00
C 272.00 0.00 271.96 1.00 272.00 1.00 Z"/>
</g>
<g fill="None" fill-opacity="0.0" stroke="#054952" stroke-opacity="1.00" stroke-width="0.3"><path d="
M 129.00 187.00 
C 125.75 190.25 122.21 193.79 119.00 197.00
C 105.08 212.91 95.13 227.32 86.98 246.98 C 78.82 266.63 74.57 294.85 76.00 317.00 C 77.43 339.15 83.99 361.30 94.08 379.92 C 104.16 398.55 112.96 411.40 129.25 425.75 C 145.54 440.10 160.25 453.82 184.00 452.00 C 207.75 450.18 241.10 453.69 265.00 452.00 C 288.90 450.31 321.91 456.91 341.92 446.92 C 361.94 436.94 370.93 425.35 385.75 409.75 C 400.57 394.15 407.33 377.95 415.22 358.22 C 423.11 338.50 425.75 308.62 423.00 287.00 C 420.24 265.39 413.11 244.22 402.75 226.25 C 392.40 208.27 380.61 196.21 365.25 182.75 C 349.89 169.29 332.95 159.36 314.00 153.00
C 314.21 139.00 313.72 120.55 314.00 107.00 C 314.28 93.45 312.99 79.55 323.08 70.08 C 333.18 60.62 334.36 47.47 318.00 48.00 C 301.64 48.53 287.92 47.77 272.00 48.00 C 256.08 48.23 242.96 47.93 227.00 48.00 C 211.04 48.07 197.50 48.04 181.00 48.00 C 164.50 47.96 167.65 61.44 177.25 70.75 C 186.84 80.07 185.71 94.84 186.00 108.00 C 186.29 121.16 185.78 139.38 186.00 153.00
C 164.88 159.71 146.04 172.44 129.00 187.00
M 373.00 214.00 
C 383.57 227.53 392.97 239.49 398.77 256.23 C 404.57 272.96 409.56 297.63 408.00 316.00 C 406.44 334.37 400.97 354.05 392.69 369.70 C 384.42 385.34 377.23 397.78 363.75 409.75 C 350.27 421.72 339.79 434.66 320.00 435.00 C 300.21 435.34 271.65 434.60 251.00 435.00 C 230.35 435.40 203.06 434.26 183.00 435.00 C 162.94 435.74 151.42 423.41 137.75 411.25 C 124.08 399.08 117.26 387.28 108.23 371.77 C 99.20 356.26 94.99 336.29 93.00 318.00 C 91.01 299.71 93.92 275.29 100.78 258.78 C 107.63 242.26 113.24 227.49 126.00 215.00
C 126.25 214.75 126.65 214.05 127.00 214.00
C 133.37 200.43 146.43 196.27 157.08 186.08 C 167.74 175.90 183.48 174.41 196.22 166.22 C 208.97 158.04 201.20 130.36 203.00 115.00 C 204.80 99.64 201.30 78.53 194.00 65.00
C 231.33 65.00 268.67 65.00 306.00 65.00
C 298.65 77.61 298.57 87.05 297.00 102.00 C 295.43 116.95 299.71 133.29 297.00 149.00 C 294.29 164.71 308.60 168.47 320.08 172.92 C 331.55 177.37 339.69 184.20 349.25 190.75 C 358.80 197.31 366.23 204.90 373.00 214.00 Z"/>
</g>
<g fill="None" fill-opacity="0.0" stroke="#FDFDFD" stroke-opacity="1.00" stroke-width="0.3"><path d="
M 127.00 214.00 
C 136.41 212.65 148.55 213.44 158.00 214.00 C 167.45 214.56 180.11 211.15 189.00 214.00
C 190.26 213.15 191.34 211.84 193.00 212.00
C 186.62 188.69 214.93 168.20 236.00 177.00
C 239.25 168.98 246.40 164.20 254.68 161.68 C 262.95 159.16 275.73 158.98 283.08 164.92 C 290.43 170.86 295.32 177.23 305.00 175.00 C 314.69 172.77 323.01 179.92 329.75 185.25 C 336.49 190.58 339.34 203.12 337.00 211.00
C 338.66 211.54 339.33 213.56 341.00 214.00
C 350.74 216.92 363.35 210.83 373.00 214.00
C 366.23 204.90 358.80 197.31 349.25 190.75 C 339.69 184.20 331.55 177.37 320.08 172.92 C 308.60 168.47 294.29 164.71 297.00 149.00 C 299.71 133.29 295.43 116.95 297.00 102.00 C 298.57 87.05 298.65 77.61 306.00 65.00
C 268.67 65.00 231.33 65.00 194.00 65.00
C 201.30 78.53 204.80 99.64 203.00 115.00 C 201.20 130.36 208.97 158.04 196.22 166.22 C 183.48 174.41 167.74 175.90 157.08 186.08 C 146.43 196.27 133.37 200.43 127.00 214.00 Z"/>
</g>
<g fill="None" fill-opacity="0.0" stroke="#434343" stroke-opacity="1.00" stroke-width="0.3"><path d="
M 189.00 214.00 
C 188.73 214.18 188.25 214.75 188.00 215.00
C 175.66 227.11 180.01 254.15 199.23 258.77 C 218.45 263.39 245.28 260.96 266.00 261.00 C 286.72 261.04 312.88 263.60 332.08 258.08 C 351.27 252.55 353.54 226.54 341.00 214.00
C 339.33 213.56 338.66 211.54 337.00 211.00
C 339.34 203.12 336.49 190.58 329.75 185.25 C 323.01 179.92 314.69 172.77 305.00 175.00 C 295.32 177.23 290.43 170.86 283.08 164.92 C 275.73 158.98 262.95 159.16 254.68 161.68 C 246.40 164.20 239.25 168.98 236.00 177.00
C 214.93 168.20 186.62 188.69 193.00 212.00
C 191.34 211.84 190.26 213.15 189.00 214.00
M 288.00 190.00 
C 299.20 186.45 312.50 183.41 321.75 193.25 C 331.00 203.09 320.37 215.47 332.25 221.75 C 344.12 228.04 337.84 246.64 325.77 248.77 C 313.71 250.90 294.48 249.99 281.00 250.00 C 267.52 250.01 249.51 250.34 236.00 250.00 C 222.49 249.66 207.26 253.06 196.77 244.23 C 186.28 235.40 194.72 219.41 206.00 217.00
C 193.55 194.73 224.25 177.02 242.00 191.00
C 244.55 165.72 284.24 164.89 288.00 190.00 Z"/>
</g>
<g fill="None" fill-opacity="0.0" stroke="#FDFDFD" stroke-opacity="1.00" stroke-width="0.3"><path d="
M 288.00 190.00 
C 284.24 164.89 244.55 165.72 242.00 191.00
C 224.25 177.02 193.55 194.73 206.00 217.00
C 194.72 219.41 186.28 235.40 196.77 244.23 C 207.26 253.06 222.49 249.66 236.00 250.00 C 249.51 250.34 267.52 250.01 281.00 250.00 C 294.48 249.99 313.71 250.90 325.77 248.77 C 337.84 246.64 344.12 228.04 332.25 221.75 C 320.37 215.47 331.00 203.09 321.75 193.25 C 312.50 183.41 299.20 186.45 288.00 190.00 Z"/>
</g>
<g fill="None" fill-opacity="0.0" stroke="#7EA1A5" stroke-opacity="1.00" stroke-width="0.3"><path d="
M 119.00 197.00 
C 122.21 193.79 125.75 190.25 129.00 187.00
C 125.45 190.03 122.07 193.40 119.00 197.00 Z"/>
</g>
<g fill="None" fill-opacity="0.0" stroke="#64B3CC" stroke-opacity="1.00" stroke-width="0.3"><path d="
M 126.00 215.00 
C 134.89 217.85 147.55 214.44 157.00 215.00 C 166.45 215.56 178.59 216.35 188.00 215.00
C 188.25 214.75 188.73 214.18 189.00 214.00
C 180.11 211.15 167.45 214.56 158.00 214.00 C 148.55 213.44 136.41 212.65 127.00 214.00
C 126.65 214.05 126.25 214.75 126.00 215.00 Z"/>
</g>
<g fill="None" fill-opacity="0.0" stroke="#329ABC" stroke-opacity="1.00" stroke-width="0.3"><path d="
M 188.00 215.00 
C 178.59 216.35 166.45 215.56 157.00 215.00 C 147.55 214.44 134.89 217.85 126.00 215.00
C 113.24 227.49 107.63 242.26 100.78 258.78 C 93.92 275.29 91.01 299.71 93.00 318.00 C 94.99 336.29 99.20 356.26 108.23 371.77 C 117.26 387.28 124.08 399.08 137.75 411.25 C 151.42 423.41 162.94 435.74 183.00 435.00 C 203.06 434.26 230.35 435.40 251.00 435.00 C 271.65 434.60 300.21 435.34 320.00 435.00 C 339.79 434.66 350.27 421.72 363.75 409.75 C 377.23 397.78 384.42 385.34 392.69 369.70 C 400.97 354.05 406.44 334.37 408.00 316.00 C 409.56 297.63 404.57 272.96 398.77 256.23 C 392.97 239.49 383.57 227.53 373.00 214.00
C 363.35 210.83 350.74 216.92 341.00 214.00
C 353.54 226.54 351.27 252.55 332.08 258.08 C 312.88 263.60 286.72 261.04 266.00 261.00 C 245.28 260.96 218.45 263.39 199.23 258.77 C 180.01 254.15 175.66 227.11 188.00 215.00
M 168.00 287.00 
C 171.97 277.70 183.61 275.17 193.00 276.00 C 202.39 276.83 209.45 286.95 218.01 286.01 C 226.57 285.07 238.27 291.32 241.25 299.75 C 244.23 308.17 247.70 318.07 251.33 326.67 C 254.95 335.27 247.63 346.12 238.77 349.77 C 229.91 353.42 214.66 351.65 204.00 352.00 C 193.34 352.35 177.70 351.58 167.00 352.00 C 156.30 352.42 143.22 352.90 135.25 346.75 C 127.29 340.60 122.84 328.31 129.31 320.31 C 135.77 312.30 133.92 302.50 140.75 294.75 C 147.59 287.01 158.48 285.35 168.00 287.00
M 292.00 371.00 
C 299.73 369.06 317.01 372.37 319.25 382.75 C 321.50 393.13 330.13 402.58 328.67 413.67 C 327.21 424.76 316.23 430.99 304.99 430.99 C 293.75 431.00 275.81 431.08 264.00 431.00 C 252.19 430.92 236.22 432.40 225.93 428.07 C 215.63 423.75 211.63 408.75 217.77 400.77 C 223.91 392.79 221.88 379.29 232.25 374.25 C 242.62 369.20 253.22 371.04 262.08 363.08 C 270.93 355.11 286.50 363.56 292.00 371.00 Z"/>
</g>
<g fill="None" fill-opacity="0.0" stroke="#FFFFFF" stroke-opacity="0.33" stroke-width="0.3"><path d="
M 0.00 237.00 
C 0.50 237.00 1.00 237.00 1.00 237.00
C 1.00 234.00 1.00 231.00 1.00 228.00
C 1.00 228.00 0.50 228.00 0.00 228.00
L 0.00 237.00 Z"/>
</g>
<g fill="None" fill-opacity="0.0" stroke="#FFFFFF" stroke-opacity="0.33" stroke-width="0.3"><path d="
M 499.00 237.00 
C 499.00 236.96 500.00 237.00 500.00 237.00
L 500.00 228.00
C 500.00 228.00 499.00 227.96 499.00 228.00
C 499.00 231.00 499.00 234.00 499.00 237.00 Z"/>
</g>
<g fill="None" fill-opacity="0.0" stroke="#FFFFFF" stroke-opacity="0.78" stroke-width="0.3"><path d="
M 0.00 245.00 
C 1.78 243.30 1.00 239.52 1.00 237.00
C 1.00 237.00 0.50 237.00 0.00 237.00
L 0.00 245.00 Z"/>
</g>
<g fill="None" fill-opacity="0.0" stroke="#FFFFFF" stroke-opacity="0.78" stroke-width="0.3"><path d="
M 500.00 245.00 
L 500.00 237.00
C 500.00 237.00 499.00 236.96 499.00 237.00
C 499.00 239.52 498.31 243.23 500.00 245.00 Z"/>
</g>
<g fill="None" fill-opacity="0.0" stroke="#FFFFFF" stroke-opacity="0.55" stroke-width="0.3"><path d="
M 0.00 272.00 
C 0.50 272.00 1.00 272.00 1.00 272.00
C 1.00 266.49 1.80 259.75 0.00 255.00
L 0.00 272.00 Z"/>
</g>
<g fill="None" fill-opacity="0.0" stroke="#FFFFFF" stroke-opacity="0.55" stroke-width="0.3"><path d="
M 499.00 272.00 
C 499.00 271.96 500.00 272.00 500.00 272.00
L 500.00 255.00
C 498.17 259.67 499.00 266.50 499.00 272.00 Z"/>
</g>
<g fill="None" fill-opacity="0.0" stroke="#000000" stroke-opacity="0.00" stroke-width="0.3"><path d="
M 0.00 500.00 
L 228.00 500.00
C 228.00 499.50 228.00 499.00 228.00 499.00
C 171.35 499.00 112.51 466.99 72.75 427.25 C 32.99 387.50 1.00 328.58 1.00 272.00
C 1.00 272.00 0.50 272.00 0.00 272.00
L 0.00 500.00 Z"/>
</g>
<g fill="None" fill-opacity="0.0" stroke="#000000" stroke-opacity="0.00" stroke-width="0.3"><path d="
M 272.00 499.00 
C 272.04 499.00 272.00 500.00 272.00 500.00
L 500.00 500.00
L 500.00 272.00
C 500.00 272.00 499.00 271.96 499.00 272.00
C 499.00 328.65 466.99 387.49 427.25 427.25 C 387.50 467.01 328.58 499.00 272.00 499.00 Z"/>
</g>
<g fill="None" fill-opacity="0.0" stroke="#424344" stroke-opacity="1.00" stroke-width="0.3"><path d="
M 168.00 287.00 
C 158.48 285.35 147.59 287.01 140.75 294.75 C 133.92 302.50 135.77 312.30 129.31 320.31 C 122.84 328.31 127.29 340.60 135.25 346.75 C 143.22 352.90 156.30 352.42 167.00 352.00 C 177.70 351.58 193.34 352.35 204.00 352.00 C 214.66 351.65 229.91 353.42 238.77 349.77 C 247.63 346.12 254.95 335.27 251.33 326.67 C 247.70 318.07 244.23 308.17 241.25 299.75 C 238.27 291.32 226.57 285.07 218.01 286.01 C 209.45 286.95 202.39 276.83 193.00 276.00 C 183.61 275.17 171.97 277.70 168.00 287.00
M 206.00 301.00 
C 213.83 297.21 221.17 295.17 228.75 301.25 C 236.32 307.34 227.47 317.94 236.23 321.77 C 244.99 325.60 240.96 339.05 232.30 340.30 C 223.65 341.56 211.61 341.09 202.00 341.00 C 192.39 340.91 179.71 341.45 170.00 341.00 C 160.29 340.55 149.28 343.43 141.25 337.75 C 133.23 332.07 140.34 320.31 148.00 319.00
C 138.62 302.77 160.47 290.64 173.00 301.00
C 175.65 282.17 203.07 282.25 206.00 301.00 Z"/>
</g>
<g fill="None" fill-opacity="0.0" stroke="#FCFCFC" stroke-opacity="1.00" stroke-width="0.3"><path d="
M 206.00 301.00 
C 203.07 282.25 175.65 282.17 173.00 301.00
C 160.47 290.64 138.62 302.77 148.00 319.00
C 140.34 320.31 133.23 332.07 141.25 337.75 C 149.28 343.43 160.29 340.55 170.00 341.00 C 179.71 341.45 192.39 340.91 202.00 341.00 C 211.61 341.09 223.65 341.56 232.30 340.30 C 240.96 339.05 244.99 325.60 236.23 321.77 C 227.47 317.94 236.32 307.34 228.75 301.25 C 221.17 295.17 213.83 297.21 206.00 301.00 Z"/>
</g>
<g fill="None" fill-opacity="0.0" stroke="#424445" stroke-opacity="1.00" stroke-width="0.3"><path d="
M 292.00 371.00 
C 286.50 363.56 270.93 355.11 262.08 363.08 C 253.22 371.04 242.62 369.20 232.25 374.25 C 221.88 379.29 223.91 392.79 217.77 400.77 C 211.63 408.75 215.63 423.75 225.93 428.07 C 236.22 432.40 252.19 430.92 264.00 431.00 C 275.81 431.08 293.75 431.00 304.99 430.99 C 316.23 430.99 327.21 424.76 328.67 413.67 C 330.13 402.58 321.50 393.13 319.25 382.75 C 317.01 372.37 299.73 369.06 292.00 371.00
M 308.00 419.00 
C 297.11 421.26 283.69 419.99 272.00 420.00 C 260.31 420.01 246.82 421.24 236.00 419.00
C 223.25 416.36 224.09 404.16 236.00 400.00
C 225.90 386.58 246.45 375.93 257.00 385.00
C 259.62 377.72 267.63 368.21 276.22 372.78 C 284.82 377.35 285.21 386.66 296.01 382.01 C 306.80 377.35 313.85 393.31 308.00 400.00
C 319.44 401.76 321.26 419.56 308.00 419.00 Z"/>
</g>
<g fill="None" fill-opacity="0.0" stroke="#FDFDFD" stroke-opacity="1.00" stroke-width="0.3"><path d="
M 236.00 419.00 
C 247.78 420.07 260.17 419.00 272.00 419.00 C 283.83 419.00 296.22 420.07 308.00 419.00
C 321.26 419.56 319.44 401.76 308.00 400.00
C 313.85 393.31 306.80 377.35 296.01 382.01 C 285.21 386.66 284.82 377.35 276.22 372.78 C 267.63 368.21 259.62 377.72 257.00 385.00
C 246.45 375.93 225.90 386.58 236.00 400.00
C 224.09 404.16 223.25 416.36 236.00 419.00 Z"/>
</g>
<g fill="None" fill-opacity="0.0" stroke="#8D8D8D" stroke-opacity="1.00" stroke-width="0.3"><path d="
M 308.00 419.00 
C 296.22 420.07 283.83 419.00 272.00 419.00 C 260.17 419.00 247.78 420.07 236.00 419.00
C 246.82 421.24 260.31 420.01 272.00 420.00 C 283.69 419.99 297.11 421.26 308.00 419.00 Z"/>
</g>
<g fill="None" fill-opacity="0.0" stroke="#FFFFFF" stroke-opacity="0.33" stroke-width="0.3"><path d="
M 228.00 500.00 
L 237.00 500.00
C 237.00 499.50 237.00 499.00 237.00 499.00
C 234.00 499.00 231.00 499.00 228.00 499.00
C 228.00 499.00 228.00 499.50 228.00 500.00 Z"/>
</g>
<g fill="None" fill-opacity="0.0" stroke="#FFFFFF" stroke-opacity="0.78" stroke-width="0.3"><path d="
M 237.00 500.00 
L 245.00 500.00
C 243.30 498.22 239.52 499.00 237.00 499.00
C 237.00 499.00 237.00 499.50 237.00 500.00 Z"/>
</g>
<g fill="None" fill-opacity="0.0" stroke="#FFFFFF" stroke-opacity="0.55" stroke-width="0.3"><path d="
M 255.00 500.00 
L 272.00 500.00
C 272.00 500.00 272.04 499.00 272.00 499.00
C 266.49 499.00 259.75 498.20 255.00 500.00 Z"/>
</g>
<g fill="#000000" fill-opacity="0.00" stroke="None">
<path d="
M 0.00 228.00 
C 0.50 228.00 1.00 228.00 1.00 228.00
C 1.00 171.42 32.99 112.49 72.75 72.75 C 112.51 33.01 171.35 1.00 228.00 1.00
C 227.96 1.00 228.00 0.00 228.00 0.00
L 0.00 0.00
L 0.00 228.00 Z"/>
</g>
<g fill="#FFFFFF" fill-opacity="0.33" stroke="None">
<path d="
M 228.00 1.00 
C 231.00 1.00 234.00 1.00 237.00 1.00
C 236.96 1.00 237.00 0.00 237.00 0.00
L 228.00 0.00
C 228.00 0.00 227.96 1.00 228.00 1.00 Z"/>
</g>
<g fill="#FFFFFF" fill-opacity="0.78" stroke="None">
<path d="
M 237.00 1.00 
C 239.52 1.00 243.30 1.78 245.00 0.00
L 237.00 0.00
C 237.00 0.00 236.96 1.00 237.00 1.00 Z"/>
</g>
<g fill="#FEFEFE" fill-opacity="0.99" stroke="None">
<path d="
M 237.00 1.00 
C 234.00 1.00 231.00 1.00 228.00 1.00
C 171.35 1.00 112.51 33.01 72.75 72.75 C 32.99 112.49 1.00 171.42 1.00 228.00
C 1.00 231.00 1.00 234.00 1.00 237.00
C 1.00 239.52 1.78 243.30 0.00 245.00
L 0.00 255.00
C 1.80 259.75 1.00 266.49 1.00 272.00
C 1.00 328.58 32.99 387.50 72.75 427.25 C 112.51 466.99 171.35 499.00 228.00 499.00
C 231.00 499.00 234.00 499.00 237.00 499.00
C 239.52 499.00 243.30 498.22 245.00 500.00
L 255.00 500.00
C 259.75 498.20 266.49 499.00 272.00 499.00
C 328.58 499.00 387.50 467.01 427.25 427.25 C 466.99 387.49 499.00 328.65 499.00 272.00
C 499.00 266.50 498.17 259.67 500.00 255.00
L 500.00 245.00
C 498.31 243.23 499.00 239.52 499.00 237.00
C 499.00 234.00 499.00 231.00 499.00 228.00
C 499.00 171.42 467.01 112.50 427.25 72.75 C 387.49 33.01 328.65 1.00 272.00 1.00
C 266.50 1.00 259.67 1.83 255.00 0.00
L 245.00 0.00
C 243.30 1.78 239.52 1.00 237.00 1.00
M 119.00 197.00 
C 122.07 193.40 125.45 190.03 129.00 187.00
C 146.04 172.44 164.88 159.71 186.00 153.00
C 185.78 139.38 186.29 121.16 186.00 108.00 C 185.71 94.84 186.84 80.07 177.25 70.75 C 167.65 61.44 164.50 47.96 181.00 48.00 C 197.50 48.04 211.04 48.07 227.00 48.00 C 242.96 47.93 256.08 48.23 272.00 48.00 C 287.92 47.77 301.64 48.53 318.00 48.00 C 334.36 47.47 333.18 60.62 323.08 70.08 C 312.99 79.55 314.28 93.45 314.00 107.00 C 313.72 120.55 314.21 139.00 314.00 153.00
C 332.95 159.36 349.89 169.29 365.25 182.75 C 380.61 196.21 392.40 208.27 402.75 226.25 C 413.11 244.22 420.24 265.39 423.00 287.00 C 425.75 308.62 423.11 338.50 415.22 358.22 C 407.33 377.95 400.57 394.15 385.75 409.75 C 370.93 425.35 361.94 436.94 341.92 446.92 C 321.91 456.91 288.90 450.31 265.00 452.00 C 241.10 453.69 207.75 450.18 184.00 452.00 C 160.25 453.82 145.54 440.10 129.25 425.75 C 112.96 411.40 104.16 398.55 94.08 379.92 C 83.99 361.30 77.43 339.15 76.00 317.00 C 74.57 294.85 78.82 266.63 86.98 246.98 C 95.13 227.32 105.08 212.91 119.00 197.00 Z"/>
</g>
<g fill="#FFFFFF" fill-opacity="0.55" stroke="None">
<path d="
M 272.00 1.00 
C 271.96 1.00 272.00 0.00 272.00 0.00
L 255.00 0.00
C 259.67 1.83 266.50 1.00 272.00 1.00 Z"/>
</g>
<g fill="#000000" fill-opacity="0.00" stroke="None">
<path d="
M 272.00 1.00 
C 328.65 1.00 387.49 33.01 427.25 72.75 C 467.01 112.50 499.00 171.42 499.00 228.00
C 499.00 227.96 500.00 228.00 500.00 228.00
L 500.00 0.00
L 272.00 0.00
C 272.00 0.00 271.96 1.00 272.00 1.00 Z"/>
</g>
<g fill="#054952" fill-opacity="1.00" stroke="None">
<path d="
M 129.00 187.00 
C 125.75 190.25 122.21 193.79 119.00 197.00
C 105.08 212.91 95.13 227.32 86.98 246.98 C 78.82 266.63 74.57 294.85 76.00 317.00 C 77.43 339.15 83.99 361.30 94.08 379.92 C 104.16 398.55 112.96 411.40 129.25 425.75 C 145.54 440.10 160.25 453.82 184.00 452.00 C 207.75 450.18 241.10 453.69 265.00 452.00 C 288.90 450.31 321.91 456.91 341.92 446.92 C 361.94 436.94 370.93 425.35 385.75 409.75 C 400.57 394.15 407.33 377.95 415.22 358.22 C 423.11 338.50 425.75 308.62 423.00 287.00 C 420.24 265.39 413.11 244.22 402.75 226.25 C 392.40 208.27 380.61 196.21 365.25 182.75 C 349.89 169.29 332.95 159.36 314.00 153.00
C 314.21 139.00 313.72 120.55 314.00 107.00 C 314.28 93.45 312.99 79.55 323.08 70.08 C 333.18 60.62 334.36 47.47 318.00 48.00 C 301.64 48.53 287.92 47.77 272.00 48.00 C 256.08 48.23 242.96 47.93 227.00 48.00 C 211.04 48.07 197.50 48.04 181.00 48.00 C 164.50 47.96 167.65 61.44 177.25 70.75 C 186.84 80.07 185.71 94.84 186.00 108.00 C 186.29 121.16 185.78 139.38 186.00 153.00
C 164.88 159.71 146.04 172.44 129.00 187.00
M 373.00 214.00 
C 383.57 227.53 392.97 239.49 398.77 256.23 C 404.57 272.96 409.56 297.63 408.00 316.00 C 406.44 334.37 400.97 354.05 392.69 369.70 C 384.42 385.34 377.23 397.78 363.75 409.75 C 350.27 421.72 339.79 434.66 320.00 435.00 C 300.21 435.34 271.65 434.60 251.00 435.00 C 230.35 435.40 203.06 434.26 183.00 435.00 C 162.94 435.74 151.42 423.41 137.75 411.25 C 124.08 399.08 117.26 387.28 108.23 371.77 C 99.20 356.26 94.99 336.29 93.00 318.00 C 91.01 299.71 93.92 275.29 100.78 258.78 C 107.63 242.26 113.24 227.49 126.00 215.00
C 126.25 214.75 126.65 214.05 127.00 214.00
C 133.37 200.43 146.43 196.27 157.08 186.08 C 167.74 175.90 183.48 174.41 196.22 166.22 C 208.97 158.04 201.20 130.36 203.00 115.00 C 204.80 99.64 201.30 78.53 194.00 65.00
C 231.33 65.00 268.67 65.00 306.00 65.00
C 298.65 77.61 298.57 87.05 297.00 102.00 C 295.43 116.95 299.71 133.29 297.00 149.00 C 294.29 164.71 308.60 168.47 320.08 172.92 C 331.55 177.37 339.69 184.20 349.25 190.75 C 358.80 197.31 366.23 204.90 373.00 214.00 Z"/>
</g>
<g fill="#FDFDFD" fill-opacity="1.00" stroke="None">
<path d="
M 127.00 214.00 
C 136.41 212.65 148.55 213.44 158.00 214.00 C 167.45 214.56 180.11 211.15 189.00 214.00
C 190.26 213.15 191.34 211.84 193.00 212.00
C 186.62 188.69 214.93 168.20 236.00 177.00
C 239.25 168.98 246.40 164.20 254.68 161.68 C 262.95 159.16 275.73 158.98 283.08 164.92 C 290.43 170.86 295.32 177.23 305.00 175.00 C 314.69 172.77 323.01 179.92 329.75 185.25 C 336.49 190.58 339.34 203.12 337.00 211.00
C 338.66 211.54 339.33 213.56 341.00 214.00
C 350.74 216.92 363.35 210.83 373.00 214.00
C 366.23 204.90 358.80 197.31 349.25 190.75 C 339.69 184.20 331.55 177.37 320.08 172.92 C 308.60 168.47 294.29 164.71 297.00 149.00 C 299.71 133.29 295.43 116.95 297.00 102.00 C 298.57 87.05 298.65 77.61 306.00 65.00
C 268.67 65.00 231.33 65.00 194.00 65.00
C 201.30 78.53 204.80 99.64 203.00 115.00 C 201.20 130.36 208.97 158.04 196.22 166.22 C 183.48 174.41 167.74 175.90 157.08 186.08 C 146.43 196.27 133.37 200.43 127.00 214.00 Z"/>
</g>
<g fill="#434343" fill-opacity="1.00" stroke="None">
<path d="
M 189.00 214.00 
C 188.73 214.18 188.25 214.75 188.00 215.00
C 175.66 227.11 180.01 254.15 199.23 258.77 C 218.45 263.39 245.28 260.96 266.00 261.00 C 286.72 261.04 312.88 263.60 332.08 258.08 C 351.27 252.55 353.54 226.54 341.00 214.00
C 339.33 213.56 338.66 211.54 337.00 211.00
C 339.34 203.12 336.49 190.58 329.75 185.25 C 323.01 179.92 314.69 172.77 305.00 175.00 C 295.32 177.23 290.43 170.86 283.08 164.92 C 275.73 158.98 262.95 159.16 254.68 161.68 C 246.40 164.20 239.25 168.98 236.00 177.00
C 214.93 168.20 186.62 188.69 193.00 212.00
C 191.34 211.84 190.26 213.15 189.00 214.00
M 288.00 190.00 
C 299.20 186.45 312.50 183.41 321.75 193.25 C 331.00 203.09 320.37 215.47 332.25 221.75 C 344.12 228.04 337.84 246.64 325.77 248.77 C 313.71 250.90 294.48 249.99 281.00 250.00 C 267.52 250.01 249.51 250.34 236.00 250.00 C 222.49 249.66 207.26 253.06 196.77 244.23 C 186.28 235.40 194.72 219.41 206.00 217.00
C 193.55 194.73 224.25 177.02 242.00 191.00
C 244.55 165.72 284.24 164.89 288.00 190.00 Z"/>
</g>
<g fill="#FDFDFD" fill-opacity="1.00" stroke="None">
<path d="
M 288.00 190.00 
C 284.24 164.89 244.55 165.72 242.00 191.00
C 224.25 177.02 193.55 194.73 206.00 217.00
C 194.72 219.41 186.28 235.40 196.77 244.23 C 207.26 253.06 222.49 249.66 236.00 250.00 C 249.51 250.34 267.52 250.01 281.00 250.00 C 294.48 249.99 313.71 250.90 325.77 248.77 C 337.84 246.64 344.12 228.04 332.25 221.75 C 320.37 215.47 331.00 203.09 321.75 193.25 C 312.50 183.41 299.20 186.45 288.00 190.00 Z"/>
</g>
<g fill="#7EA1A5" fill-opacity="1.00" stroke="None">
<path d="
M 119.00 197.00 
C 122.21 193.79 125.75 190.25 129.00 187.00
C 125.45 190.03 122.07 193.40 119.00 197.00 Z"/>
</g>
<g fill="#64B3CC" fill-opacity="1.00" stroke="None">
<path d="
M 126.00 215.00 
C 134.89 217.85 147.55 214.44 157.00 215.00 C 166.45 215.56 178.59 216.35 188.00 215.00
C 188.25 214.75 188.73 214.18 189.00 214.00
C 180.11 211.15 167.45 214.56 158.00 214.00 C 148.55 213.44 136.41 212.65 127.00 214.00
C 126.65 214.05 126.25 214.75 126.00 215.00 Z"/>
</g>
<g fill="#329ABC" fill-opacity="1.00" stroke="None">
<path d="
M 188.00 215.00 
C 178.59 216.35 166.45 215.56 157.00 215.00 C 147.55 214.44 134.89 217.85 126.00 215.00
C 113.24 227.49 107.63 242.26 100.78 258.78 C 93.92 275.29 91.01 299.71 93.00 318.00 C 94.99 336.29 99.20 356.26 108.23 371.77 C 117.26 387.28 124.08 399.08 137.75 411.25 C 151.42 423.41 162.94 435.74 183.00 435.00 C 203.06 434.26 230.35 435.40 251.00 435.00 C 271.65 434.60 300.21 435.34 320.00 435.00 C 339.79 434.66 350.27 421.72 363.75 409.75 C 377.23 397.78 384.42 385.34 392.69 369.70 C 400.97 354.05 406.44 334.37 408.00 316.00 C 409.56 297.63 404.57 272.96 398.77 256.23 C 392.97 239.49 383.57 227.53 373.00 214.00
C 363.35 210.83 350.74 216.92 341.00 214.00
C 353.54 226.54 351.27 252.55 332.08 258.08 C 312.88 263.60 286.72 261.04 266.00 261.00 C 245.28 260.96 218.45 263.39 199.23 258.77 C 180.01 254.15 175.66 227.11 188.00 215.00
M 168.00 287.00 
C 171.97 277.70 183.61 275.17 193.00 276.00 C 202.39 276.83 209.45 286.95 218.01 286.01 C 226.57 285.07 238.27 291.32 241.25 299.75 C 244.23 308.17 247.70 318.07 251.33 326.67 C 254.95 335.27 247.63 346.12 238.77 349.77 C 229.91 353.42 214.66 351.65 204.00 352.00 C 193.34 352.35 177.70 351.58 167.00 352.00 C 156.30 352.42 143.22 352.90 135.25 346.75 C 127.29 340.60 122.84 328.31 129.31 320.31 C 135.77 312.30 133.92 302.50 140.75 294.75 C 147.59 287.01 158.48 285.35 168.00 287.00
M 292.00 371.00 
C 299.73 369.06 317.01 372.37 319.25 382.75 C 321.50 393.13 330.13 402.58 328.67 413.67 C 327.21 424.76 316.23 430.99 304.99 430.99 C 293.75 431.00 275.81 431.08 264.00 431.00 C 252.19 430.92 236.22 432.40 225.93 428.07 C 215.63 423.75 211.63 408.75 217.77 400.77 C 223.91 392.79 221.88 379.29 232.25 374.25 C 242.62 369.20 253.22 371.04 262.08 363.08 C 270.93 355.11 286.50 363.56 292.00 371.00 Z"/>
</g>
<g fill="#FFFFFF" fill-opacity="0.33" stroke="None">
<path d="
M 0.00 237.00 
C 0.50 237.00 1.00 237.00 1.00 237.00
C 1.00 234.00 1.00 231.00 1.00 228.00
C 1.00 228.00 0.50 228.00 0.00 228.00
L 0.00 237.00 Z"/>
</g>
<g fill="#FFFFFF" fill-opacity="0.33" stroke="None">
<path d="
M 499.00 237.00 
C 499.00 236.96 500.00 237.00 500.00 237.00
L 500.00 228.00
C 500.00 228.00 499.00 227.96 499.00 228.00
C 499.00 231.00 499.00 234.00 499.00 237.00 Z"/>
</g>
<g fill="#FFFFFF" fill-opacity="0.78" stroke="None">
<path d="
M 0.00 245.00 
C 1.78 243.30 1.00 239.52 1.00 237.00
C 1.00 237.00 0.50 237.00 0.00 237.00
L 0.00 245.00 Z"/>
</g>
<g fill="#FFFFFF" fill-opacity="0.78" stroke="None">
<path d="
M 500.00 245.00 
L 500.00 237.00
C 500.00 237.00 499.00 236.96 499.00 237.00
C 499.00 239.52 498.31 243.23 500.00 245.00 Z"/>
</g>
<g fill="#FFFFFF" fill-opacity="0.55" stroke="None">
<path d="
M 0.00 272.00 
C 0.50 272.00 1.00 272.00 1.00 272.00
C 1.00 266.49 1.80 259.75 0.00 255.00
L 0.00 272.00 Z"/>
</g>
<g fill="#FFFFFF" fill-opacity="0.55" stroke="None">
<path d="
M 499.00 272.00 
C 499.00 271.96 500.00 272.00 500.00 272.00
L 500.00 255.00
C 498.17 259.67 499.00 266.50 499.00 272.00 Z"/>
</g>
<g fill="#000000" fill-opacity="0.00" stroke="None">
<path d="
M 0.00 500.00 
L 228.00 500.00
C 228.00 499.50 228.00 499.00 228.00 499.00
C 171.35 499.00 112.51 466.99 72.75 427.25 C 32.99 387.50 1.00 328.58 1.00 272.00
C 1.00 272.00 0.50 272.00 0.00 272.00
L 0.00 500.00 Z"/>
</g>
<g fill="#000000" fill-opacity="0.00" stroke="None">
<path d="
M 272.00 499.00 
C 272.04 499.00 272.00 500.00 272.00 500.00
L 500.00 500.00
L 500.00 272.00
C 500.00 272.00 499.00 271.96 499.00 272.00
C 499.00 328.65 466.99 387.49 427.25 427.25 C 387.50 467.01 328.58 499.00 272.00 499.00 Z"/>
</g>
<g fill="#424344" fill-opacity="1.00" stroke="None">
<path d="
M 168.00 287.00 
C 158.48 285.35 147.59 287.01 140.75 294.75 C 133.92 302.50 135.77 312.30 129.31 320.31 C 122.84 328.31 127.29 340.60 135.25 346.75 C 143.22 352.90 156.30 352.42 167.00 352.00 C 177.70 351.58 193.34 352.35 204.00 352.00 C 214.66 351.65 229.91 353.42 238.77 349.77 C 247.63 346.12 254.95 335.27 251.33 326.67 C 247.70 318.07 244.23 308.17 241.25 299.75 C 238.27 291.32 226.57 285.07 218.01 286.01 C 209.45 286.95 202.39 276.83 193.00 276.00 C 183.61 275.17 171.97 277.70 168.00 287.00
M 206.00 301.00 
C 213.83 297.21 221.17 295.17 228.75 301.25 C 236.32 307.34 227.47 317.94 236.23 321.77 C 244.99 325.60 240.96 339.05 232.30 340.30 C 223.65 341.56 211.61 341.09 202.00 341.00 C 192.39 340.91 179.71 341.45 170.00 341.00 C 160.29 340.55 149.28 343.43 141.25 337.75 C 133.23 332.07 140.34 320.31 148.00 319.00
C 138.62 302.77 160.47 290.64 173.00 301.00
C 175.65 282.17 203.07 282.25 206.00 301.00 Z"/>
</g>
<g fill="#FCFCFC" fill-opacity="1.00" stroke="None">
<path d="
M 206.00 301.00 
C 203.07 282.25 175.65 282.17 173.00 301.00
C 160.47 290.64 138.62 302.77 148.00 319.00
C 140.34 320.31 133.23 332.07 141.25 337.75 C 149.28 343.43 160.29 340.55 170.00 341.00 C 179.71 341.45 192.39 340.91 202.00 341.00 C 211.61 341.09 223.65 341.56 232.30 340.30 C 240.96 339.05 244.99 325.60 236.23 321.77 C 227.47 317.94 236.32 307.34 228.75 301.25 C 221.17 295.17 213.83 297.21 206.00 301.00 Z"/>
</g>
<g fill="#424445" fill-opacity="1.00" stroke="None">
<path d="
M 292.00 371.00 
C 286.50 363.56 270.93 355.11 262.08 363.08 C 253.22 371.04 242.62 369.20 232.25 374.25 C 221.88 379.29 223.91 392.79 217.77 400.77 C 211.63 408.75 215.63 423.75 225.93 428.07 C 236.22 432.40 252.19 430.92 264.00 431.00 C 275.81 431.08 293.75 431.00 304.99 430.99 C 316.23 430.99 327.21 424.76 328.67 413.67 C 330.13 402.58 321.50 393.13 319.25 382.75 C 317.01 372.37 299.73 369.06 292.00 371.00
M 308.00 419.00 
C 297.11 421.26 283.69 419.99 272.00 420.00 C 260.31 420.01 246.82 421.24 236.00 419.00
C 223.25 416.36 224.09 404.16 236.00 400.00
C 225.90 386.58 246.45 375.93 257.00 385.00
C 259.62 377.72 267.63 368.21 276.22 372.78 C 284.82 377.35 285.21 386.66 296.01 382.01 C 306.80 377.35 313.85 393.31 308.00 400.00
C 319.44 401.76 321.26 419.56 308.00 419.00 Z"/>
</g>
<g fill="#FDFDFD" fill-opacity="1.00" stroke="None">
<path d="
M 236.00 419.00 
C 247.78 420.07 260.17 419.00 272.00 419.00 C 283.83 419.00 296.22 420.07 308.00 419.00
C 321.26 419.56 319.44 401.76 308.00 400.00
C 313.85 393.31 306.80 377.35 296.01 382.01 C 285.21 386.66 284.82 377.35 276.22 372.78 C 267.63 368.21 259.62 377.72 257.00 385.00
C 246.45 375.93 225.90 386.58 236.00 400.00
C 224.09 404.16 223.25 416.36 236.00 419.00 Z"/>
</g>
<g fill="#8D8D8D" fill-opacity="1.00" stroke="None">
<path d="
M 308.00 419.00 
C 296.22 420.07 283.83 419.00 272.00 419.00 C 260.17 419.00 247.78 420.07 236.00 419.00
C 246.82 421.24 260.31 420.01 272.00 420.00 C 283.69 419.99 297.11 421.26 308.00 419.00 Z"/>
</g>
<g fill="#FFFFFF" fill-opacity="0.33" stroke="None">
<path d="
M 228.00 500.00 
L 237.00 500.00
C 237.00 499.50 237.00 499.00 237.00 499.00
C 234.00 499.00 231.00 499.00 228.00 499.00
C 228.00 499.00 228.00 499.50 228.00 500.00 Z"/>
</g>
<g fill="#FFFFFF" fill-opacity="0.78" stroke="None">
<path d="
M 237.00 500.00 
L 245.00 500.00
C 243.30 498.22 239.52 499.00 237.00 499.00
C 237.00 499.00 237.00 499.50 237.00 500.00 Z"/>
</g>
<g fill="#FFFFFF" fill-opacity="0.55" stroke="None">
<path d="
M 255.00 500.00 
L 272.00 500.00
C 272.00 500.00 272.04 499.00 272.00 499.00
C 266.49 499.00 259.75 498.20 255.00 500.00 Z"/>
</g>
</svg>