<?xml version="1.0" standalone="no"?>
<!DOCTYPE svg PUBLIC "-//W3C//DTD SVG 20010904//EN"
 "http://www.w3.org/TR/2001/REC-SVG-20010904/DTD/svg10.dtd">
<svg version="1.0" xmlns="http://www.w3.org/2000/svg"
 width="175.000000pt" height="175.000000pt" viewBox="0 0 175.000000 175.000000"
 preserveAspectRatio="xMidYMid meet">

<g transform="translate(0.000000,175.000000) scale(0.100000,-0.100000)"
fill="#000000" stroke="none">
<path d="M683 1675 c-86 -15 -133 -40 -152 -79 -12 -25 -10 -37 14 -108 26
-76 26 -81 12 -126 -10 -30 -12 -52 -6 -63 17 -32 9 -53 -37 -100 l-45 -46
-14 -219 c-8 -120 -19 -298 -25 -394 -6 -96 -15 -209 -20 -250 -12 -103 3
-134 85 -175 l60 -30 280 0 c273 0 281 1 327 23 27 13 57 36 69 50 23 29 23
29 -1 312 -6 63 -19 248 -30 410 l-21 295 -44 40 c-42 38 -44 41 -32 65 11 21
11 30 -1 56 -13 28 -12 37 12 103 31 86 33 130 6 163 -53 68 -271 104 -437 73z
m198 -35 c120 -10 179 -24 163 -39 -23 -22 -94 -33 -213 -33 -108 0 -137 4
-175 21 -25 11 -46 24 -46 30 0 6 17 13 38 16 20 4 42 8 47 10 18 6 68 5 186
-5z m139 -117 c0 -5 -7 -17 -15 -27 -8 -11 -15 -30 -15 -43 0 -21 -4 -23 -56
-23 -34 0 -53 -4 -49 -10 4 -6 -24 -9 -77 -8 l-83 2 70 6 c68 6 67 7 -36 8
-149 3 -168 8 -185 48 -8 18 -14 36 -14 38 0 8 85 12 278 14 100 1 182 -1 182
-5z m90 -27 c0 -7 -7 -19 -15 -26 -16 -13 -20 -3 -9 24 8 20 24 21 24 2z
m-165 -111 l-40 -13 48 -1 c43 -1 47 -3 47 -25 0 -19 -6 -26 -27 -29 -27 -4
-27 -4 3 -6 27 -1 33 -6 38 -33 8 -42 36 -75 68 -83 15 -4 37 -25 53 -48 23
-35 29 -59 36 -145 5 -56 8 -156 7 -221 -2 -77 1 -123 8 -132 12 -14 26 -159
29 -304 1 -44 5 -99 10 -123 7 -40 6 -42 -14 -39 -29 4 -57 45 -42 60 15 15
14 39 -4 73 -12 23 -15 25 -21 11 -13 -34 -24 -4 -24 66 1 65 2 70 15 53 15
-19 15 -19 15 1 0 46 -12 82 -26 76 -22 -8 -18 54 4 66 9 6 12 11 6 11 -6 0
-9 13 -6 30 6 42 -8 146 -18 131 -14 -24 -20 18 -21 147 -1 100 -3 120 -11 93
-6 -22 -5 -91 2 -205 7 -94 16 -247 20 -341 8 -188 17 -255 33 -255 7 0 7 -3
1 -9 -5 -5 -46 -11 -91 -13 -84 -3 -105 -10 -86 -29 10 -10 156 2 221 18 13 3
22 1 22 -6 0 -6 -6 -11 -14 -11 -7 0 -19 -6 -25 -14 -22 -26 -126 -37 -342
-36 -188 1 -212 3 -195 16 20 14 20 14 0 14 -15 0 -16 2 -5 9 9 6 2 8 -20 6
-19 -2 -40 -3 -48 -4 -10 -1 -11 -4 -2 -15 10 -12 8 -13 -11 -9 -30 8 -78 41
-78 55 0 6 7 7 17 3 36 -15 53 -17 53 -7 0 5 -14 15 -30 22 -24 10 -33 10 -45
0 -25 -21 -29 14 -10 82 13 47 14 62 5 68 -9 6 -11 28 -5 85 4 43 10 72 15 66
9 -16 16 11 25 104 9 92 -10 76 -24 -20 -9 -66 -10 -64 -4 35 18 318 30 487
32 425 2 -80 15 -71 25 17 8 76 13 85 46 90 20 3 27 1 23 -9 -3 -7 -2 -35 2
-61 l8 -47 18 70 c24 94 24 105 -4 105 -13 0 -28 -5 -35 -12 -7 -7 -12 -8 -12
-2 0 17 34 39 65 42 38 4 36 2 37 49 0 37 2 39 27 35 14 -3 23 -2 20 2 -6 6
-33 12 -71 15 -5 1 -8 6 -8 11 0 6 24 10 53 11 28 1 63 5 77 9 l25 8 -27 1
c-16 1 -28 5 -28 10 0 5 39 9 87 10 48 1 89 3 91 6 3 3 21 5 41 4 l36 -1 -40
-13z m-342 -82 c5 -25 3 -33 -8 -33 -20 0 -29 37 -13 54 7 8 13 13 14 12 1 0
4 -16 7 -33z m477 17 c8 -15 7 -26 -2 -42 -13 -22 -13 -22 -16 14 -2 24 -9 38
-20 41 -12 3 -11 5 5 6 13 1 27 -7 33 -19z m-578 -187 c-3 -16 -7 -22 -10 -15
-4 13 4 42 11 42 2 0 2 -12 -1 -27z m648 -913 c0 -5 -4 -10 -10 -10 -5 0 -10
5 -10 10 0 6 5 10 10 10 6 0 10 -4 10 -10z"/>
<path d="M1065 1145 c5 -46 29 -46 37 0 4 21 1 25 -18 25 -18 0 -22 -5 -19
-25z"/>
<path d="M582 875 c0 -59 0 -60 10 -22 7 27 7 45 0 60 -9 18 -11 11 -10 -38z"/>
<path d="M571 664 c-11 -38 -16 -262 -6 -252 10 10 34 273 26 281 -6 6 -14 -6
-20 -29z"/>
<path d="M526 528 c-3 -24 -8 -78 -12 -120 -3 -43 -10 -80 -14 -83 -10 -6 -6
-97 5 -114 8 -14 28 -3 22 13 -5 13 7 212 18 294 5 35 4 52 -3 52 -6 0 -13
-19 -16 -42z"/>
<path d="M553 245 c0 -33 2 -45 4 -27 2 18 2 45 0 60 -2 15 -4 0 -4 -33z"/>
<path d="M668 153 c7 -3 16 -2 19 1 4 3 -2 6 -13 5 -11 0 -14 -3 -6 -6z"/>
</g>
</svg>
