<?xml version="1.0" encoding="utf-8"?>
<svg
  viewBox="128.7868 174.6246 252.5985 112.3066"
  xmlns="http://www.w3.org/2000/svg"
  fill="currentColor"
  class="size-8"
  >
    <path d="M 243.133 257.416 C 244.157 255.853 248.005 250.311 254.676 240.79 L 256.542 238.006 L 258.444 235.37 C 259.956 233.221 261.096 231.586 261.865 230.463 C 264.218 227.094 265.706 224.945 266.328 224.017 L 267.371 222.479 L 268.414 220.941 L 269.237 219.696 C 274.164 212.274 277.315 206.878 278.692 203.509 C 281.74 197.162 282.908 191.693 282.197 187.103 C 282.062 186.273 281.848 185.467 281.555 184.686 L 281.5 184.613 C 281.243 184.076 280.955 183.563 280.638 183.075 C 280.381 182.733 280.076 182.391 279.722 182.049 C 279.245 181.61 278.714 181.195 278.128 180.804 C 274.635 178.558 270.197 177.752 264.814 178.387 C 258.003 179.266 249.913 183.319 240.543 190.546 C 237.636 187.713 235.175 186.322 233.161 186.371 C 232.868 186.371 232.343 186.615 231.587 187.103 L 230.726 187.616 C 230.397 187.763 230.153 187.86 229.994 187.909 C 229.371 188.056 228.426 188.715 227.157 189.886 C 220.045 196.673 204.063 219.159 179.211 257.342 C 177.906 259.051 176.35 260.785 174.545 262.543 C 163.468 273.48 154.609 278.558 147.968 277.777 C 145.588 277.533 143.708 276.556 142.327 274.847 C 141.191 273.529 140.598 272.186 140.548 270.819 C 140.311 263.934 149.108 248.724 166.939 225.189 C 172.562 217.718 178.88 209.711 185.893 201.166 C 188.064 198.529 190.296 195.844 192.589 193.109 C 192.992 192.67 193.4 192.206 193.815 191.717 L 194.254 191.131 L 194.748 190.619 C 195.321 189.886 195.669 189.471 195.791 189.374 C 198.377 186.444 198.992 183.88 197.635 181.683 L 191.791 177.215 C 190.436 176.19 188.769 176.019 186.792 176.703 C 184.973 177.338 182.905 178.192 180.587 179.266 C 177.829 180.536 175.059 181.952 172.276 183.514 C 165.065 187.567 158.769 192.059 153.389 196.991 C 153.133 197.235 152.956 197.65 152.859 198.236 L 152.731 199.042 L 152.731 199.335 L 152.732 199.628 C 152.672 201.239 153.216 202.582 154.364 203.656 C 155.634 204.828 157.27 205.219 159.272 204.828 C 159.528 204.779 159.882 204.633 160.334 204.388 C 160.737 204.144 161.084 203.924 161.377 203.729 C 162.829 202.606 164.165 201.557 165.385 200.58 C 165.873 200.189 166.343 199.774 166.794 199.335 C 167.148 199.09 167.538 198.797 167.965 198.456 C 169.332 197.284 170.253 196.527 170.729 196.185 C 171.009 196.038 171.412 195.794 171.937 195.453 L 172.577 194.94 L 173.126 194.501 C 173.956 193.915 174.157 193.988 173.73 194.72 L 172.944 195.819 C 172.431 196.307 171.358 197.577 169.724 199.628 C 167.76 202.02 165.65 204.705 163.394 207.684 C 157.076 215.985 151.423 224.066 146.436 231.927 C 131.267 255.756 125.876 271.601 130.263 279.462 C 132.182 282.929 136.51 284.857 143.249 285.248 C 148.987 285.541 154.126 284.808 158.665 283.05 C 160.776 282.22 163.101 280.926 165.639 279.169 C 165.408 280.096 165.268 280.853 165.219 281.439 C 165.171 281.83 165.159 282.171 165.183 282.464 C 165.184 282.855 165.282 283.148 165.477 283.343 C 167.078 285.345 169.764 286.517 173.536 286.859 C 174.305 286.908 175.007 286.639 175.641 286.053 L 175.733 285.98 L 178.001 282.464 C 205.024 241.644 224.465 215.863 236.323 205.121 C 236.701 204.779 237.14 204.388 237.64 203.949 C 240.727 201.166 244.046 198.92 247.597 197.211 C 254.687 193.842 260.63 191.84 265.427 191.205 C 266.489 191.058 267.277 191.522 267.79 192.596 C 268.536 194.305 266.989 198.553 263.148 205.34 L 262.234 206.952 L 261.045 209.076 L 259.783 211.2 C 258.783 212.86 257.801 214.349 256.838 215.668 C 255.338 217.767 253.124 220.77 250.197 224.676 L 248.441 227.02 L 246.666 229.437 C 245.288 231.244 244.075 232.879 243.026 234.344 C 237.245 242.255 232.471 249.262 228.703 255.365 L 228.502 255.585 C 228.331 255.878 227.99 256.463 227.477 257.342 C 226.977 258.173 226.691 258.637 226.618 258.734 L 225.795 260.272 L 225.63 260.638 C 224.204 263.421 223.241 266.009 222.742 268.402 C 222.596 268.793 222.468 269.305 222.359 269.94 C 222.176 270.868 222.085 271.82 222.086 272.797 C 222.051 275.678 222.883 278.217 224.581 280.414 C 224.838 280.755 225.143 281.097 225.498 281.439 C 225.974 281.878 226.505 282.293 227.092 282.684 C 228.911 284.003 230.901 284.833 233.062 285.174 C 245.209 286.785 257.337 277.02 269.444 255.878 C 256.063 269.794 244.628 275.116 235.141 271.844 C 235.092 270.868 235.591 269.55 236.64 267.889 L 236.786 267.596 L 237.993 265.692 L 239.127 263.788 C 240.066 262.177 240.822 260.907 241.395 259.979 L 242.548 258.295 L 243.133 257.416 Z M 367.291 177.069 C 361.863 176.834 356.987 177.441 352.662 178.889 C 351.503 179.28 350.261 179.807 348.934 180.472 C 348.786 179.886 348.484 179.358 348.029 178.889 L 342.118 175.779 L 340.294 174.781 C 339.522 174.468 338.296 174.625 336.616 175.251 C 321.464 183.192 307.716 192.717 295.371 203.826 C 295.179 204.022 295.059 204.354 295.015 204.824 L 294.964 205.47 L 294.965 205.704 L 295.032 205.938 C 295.113 207.229 295.722 208.266 296.857 209.048 C 298.209 209.869 299.833 210.066 301.728 209.636 C 301.979 209.557 302.319 209.401 302.75 209.166 C 303.125 208.971 303.431 208.775 303.67 208.579 C 304.895 207.641 306.296 206.486 307.873 205.117 L 309.967 203.299 L 311.992 201.479 C 315.351 198.506 318.21 196.237 320.57 194.673 C 321.796 194.047 322.352 194.008 322.24 194.556 C 313.401 202.497 303.095 214.408 291.321 230.29 C 279.549 246.172 270.967 258.615 254.659 283.573 C 252.595 287.406 266.398 287.676 267.623 285.798 C 274.984 274.65 280.655 266.513 284.635 261.388 C 285.771 260.919 287.008 260.489 288.348 260.098 C 289.982 259.628 291.656 259.257 293.37 258.983 C 297.855 258.24 302.527 258.103 307.387 258.572 C 310.964 258.924 313.69 260.489 315.566 263.266 C 315.36 260.841 314.291 258.572 312.359 256.46 C 308.541 252.235 302.357 250.846 293.808 252.294 C 292.9 252.45 292.014 252.607 291.152 252.763 C 297.56 243.179 302.964 235.649 307.365 230.173 C 307.739 229.664 308.715 228.412 310.291 226.417 C 311.029 225.439 311.686 224.578 312.265 223.835 C 313.047 222.857 313.802 221.899 314.528 220.96 C 318.589 215.875 322.417 211.356 326.013 207.406 C 336.949 195.358 346.327 187.827 354.148 184.815 C 359.313 182.82 363.417 182.605 366.461 184.17 C 367.609 184.756 368.495 185.538 369.12 186.516 C 369.655 187.337 369.86 188.12 369.735 188.864 L 369.718 189.392 L 369.549 189.979 C 369.401 190.487 369.022 191.172 368.409 192.032 C 367.128 193.792 364.592 196.277 360.802 199.484 C 359.531 200.579 358.073 201.773 356.428 203.064 C 355.939 203.494 355.344 203.983 354.641 204.531 L 353.858 205.117 C 353.607 205.352 353.398 205.528 353.228 205.645 C 352.502 207.523 353.361 209.577 355.804 211.807 C 358.213 213.997 360.514 214.916 362.704 214.564 C 364.656 213.312 366.773 211.65 369.053 209.577 C 371.821 207.073 374.135 204.57 375.996 202.066 C 378.446 198.78 380.067 195.612 380.859 192.56 C 381.867 188.61 381.427 185.03 379.539 181.822 C 377.835 178.928 373.751 177.343 367.291 177.069 Z"/>
</svg>